<svg xmlns="http://www.w3.org/2000/svg" width="245.868" height="180"><path data-name="長方形 41" fill="#ececf4" d="M0 0h180v180H0z"/><path data-name="パス 1" d="M76.565 75.681v28.7h17.528v-5.394H82.536V75.681z"/><path data-name="パス 2" d="M109.536 104.882c7.629 0 12.286-4.932 12.286-13.29V75.681h-5.9v16.406c0 4.313-1.926 7.051-6.4 7.051-4.237 0-6.432-2.545-6.432-7.051V75.681h-5.964V91.09c0 7.973 4 13.792 12.4 13.792z"/><g data-name="グループ 23"><path data-name="パス 3" d="M133.922 91.668c2.772.31 4.313 1.734 4.313 4.045a3.474 3.474 0 01-3.5 3.426 4.973 4.973 0 01-4.354-2.084l-4.932 3.625a12.216 12.216 0 009.28 4.2 9.662 9.662 0 009.706-9.589c0-5.586-4.045-8.86-8.936-9.17-3.047-.193-4-1.39-4-2.7a2.439 2.439 0 012.655-2.545 4.7 4.7 0 013.041 1.424l4.7-3.426a9.75 9.75 0 00-7.746-3.7c-3.969 0-8.441 3.426-8.441 8.282 0 4.506 3.233 7.629 8.207 8.207z"/><path data-name="パス 4" d="M155.343 91.668c2.772.31 4.313 1.734 4.313 4.045a3.474 3.474 0 01-3.5 3.426 4.973 4.973 0 01-4.354-2.084l-4.932 3.625a12.216 12.216 0 009.28 4.2 9.662 9.662 0 009.706-9.589c0-5.586-4.045-8.86-8.936-9.17-3.047-.193-4-1.39-4-2.7a2.439 2.439 0 012.655-2.545 4.7 4.7 0 013.041 1.424l4.7-3.426a9.75 9.75 0 00-7.746-3.7c-3.969 0-8.441 3.426-8.441 8.282 0 4.506 3.233 7.629 8.207 8.207z"/><path data-name="パス 5" d="M183.541 104.883a14.848 14.848 0 10-14.866-14.866 14.845 14.845 0 0014.866 14.866zm-.034-24a9.141 9.141 0 11-8.709 9.135 8.824 8.824 0 018.708-9.136z"/></g><path data-name="パス 6" d="M150.9 132.13c0-.275-.069-.42-.213-.447a1.57 1.57 0 00-.186-.014h-.516l-4.01-9.761h-1.259l-3.728 9.761H139.9v.461h3.137c0-.275-.076-.42-.227-.447a1.569 1.569 0 00-.186-.014h-.949l1.218-3.268h3.384l1.273 3.268h-1.2v.461h4.56zm-4.829-4.244h-2.979l1.465-3.914 1.52 3.914z"/><path data-name="パス 7" d="M159.719 131.683h-.571v-6.879h-2.992v.447h.832l-.014 4.286a2.02 2.02 0 01-.977 1.761 1.277 1.277 0 01-.516.117q-.96 0-1.135-1.135a3.52 3.52 0 01-.027-.475v-5h-3.151v.447h.991v4.272q.031 2.765 2.435 2.779a2.564 2.564 0 002.325-1.362c.034-.062.069-.131.1-.2l.089 1.39h3.041c0-.248-.069-.392-.213-.433a1.6 1.6 0 00-.2-.014z"/><path data-name="パス 8" d="M160.723 125.334h1.176v4.262c0 1.644.674 2.545 2.036 2.71.144.007.282.014.413.014a1.933 1.933 0 001.809-.846 4.3 4.3 0 00.371-1.135l-.461-.055c-.227.915-.564 1.417-1 1.507a1.077 1.077 0 01-.213.014c-.42 0-.674-.289-.757-.874a3.052 3.052 0 01-.027-.433v-5.159h2.236v-.447h-2.243v-1.966l-2.167.344v1.617h-1.173z"/><path data-name="パス 9" d="M169.446 128.43c0-1.582.193-2.6.585-3.041a1.262 1.262 0 011-.4 1.336 1.336 0 011.39 1.121 9.254 9.254 0 01.2 2.263c0 1.658-.213 2.7-.647 3.123a1.422 1.422 0 01-2.325-.729 9.066 9.066 0 01-.213-2.339zm1.678-3.873a3.7 3.7 0 00-4 3.811 3.944 3.944 0 007 2.483 3.993 3.993 0 00.846-2.525 3.613 3.613 0 00-1.348-2.979 4.011 4.011 0 00-2.5-.791z"/><path data-name="パス 10" d="M179.269 131.684h-.316l.028-4.389a1.987 1.987 0 01.874-1.761 1.008 1.008 0 01.447-.117c.42 0 .722.268.9.791a2.457 2.457 0 01.131.832v3.756q0 .7-.33.846a1.806 1.806 0 01-.433.041v.447h3.612c0-.261-.069-.4-.213-.433-.076-.007-.151-.014-.213-.014h-.289v-4.471c.076-.949.378-1.534.915-1.761a1.2 1.2 0 01.344-.055c.488 0 .819.289 1 .86a3.146 3.146 0 01.1.791v3.756c0 .468-.11.75-.316.846a1.806 1.806 0 01-.433.041v.447h3.887c0-.261-.076-.4-.227-.433a2.063 2.063 0 00-.2-.014h-.557v-4.444a2.6 2.6 0 00-1.1-2.366 2.141 2.141 0 00-1.121-.316 2.665 2.665 0 00-2.463 1.575 2.176 2.176 0 00-1.445-1.52 2.972 2.972 0 00-.543-.055 2.529 2.529 0 00-2.38 1.493l-.089-1.245h-3.023v.447h.991v5.544a.762.762 0 01-.729.874 1.665 1.665 0 01-.261.014v.447h3.852c0-.261-.069-.4-.213-.433a1.569 1.569 0 00-.186-.014z"/><path data-name="パス 11" d="M192.057 128.43c0-1.582.193-2.6.585-3.041a1.262 1.262 0 011-.4 1.336 1.336 0 011.39 1.121 9.253 9.253 0 01.2 2.263c0 1.658-.213 2.7-.647 3.123a1.422 1.422 0 01-2.325-.729 9.066 9.066 0 01-.213-2.339zm1.678-3.873a3.7 3.7 0 00-4 3.811 3.944 3.944 0 007 2.483 3.993 3.993 0 00.846-2.525 3.613 3.613 0 00-1.348-2.979 4.011 4.011 0 00-2.5-.791z"/><path data-name="パス 12" d="M203.517 132.302a3.252 3.252 0 002.674-1.263 4.338 4.338 0 00.887-2.807 3.643 3.643 0 00-1.376-3.185 2.794 2.794 0 00-1.589-.488 2.854 2.854 0 00-2.635 1.733v-5.223h-3.127v.461h.977v9.259c0 .488-.193.777-.571.86a2.479 2.479 0 01-.4.028v.461h2.607l.131-1.19a2.833 2.833 0 002.435 1.362zm-.241-6.92q1.465.031 1.465 3.1c-.014 2.236-.537 3.364-1.575 3.371q-1.1 0-1.507-1.465a6.146 6.146 0 01-.186-1.589q0-2.322.991-3.123a1.308 1.308 0 01.819-.289z"/><path data-name="パス 13" d="M211.745 131.684h-.633v-6.879h-3.137v.447h.991v5.544c0 .509-.2.8-.605.86a2.2 2.2 0 01-.385.028v.446h4.182c0-.261-.076-.4-.227-.433a1.569 1.569 0 00-.186-.013zm-.475-9.1a1.311 1.311 0 00-1.28-1.273 1.189 1.189 0 00-1.1.66 1.221 1.221 0 00-.158.619 1.142 1.142 0 00.66 1.087 1.372 1.372 0 00.605.144 1.181 1.181 0 001.1-.619 1.2 1.2 0 00.173-.619z"/><path data-name="パス 14" d="M217.097 131.683h-.86v-10.621h-3.481v.447h1.321v9.259a.758.758 0 01-.557.846 3.259 3.259 0 01-.757.069v.447h4.747c0-.261-.069-.4-.213-.433a1.568 1.568 0 00-.186-.014z"/><path data-name="パス 15" d="M222.128 124.99c.722.028 1.094.654 1.1 1.864q0 .8-.475.991a3.02 3.02 0 01-1.032.089l-1.087-.055c.089-1.878.578-2.841 1.493-2.882zm3.185 5.386l-.413-.144a2.526 2.526 0 01-2.325 1.562c-.908 0-1.5-.578-1.761-1.734a10.284 10.284 0 01-.172-1.692l1.575.041c1.823.055 2.882-.227 3.185-.86a1.452 1.452 0 00.1-.53 2.218 2.218 0 00-1.493-2.119 4.938 4.938 0 00-1.878-.344 3.634 3.634 0 00-2.992 1.307 3.943 3.943 0 00-.819 2.538 3.549 3.549 0 001.85 3.44 4.343 4.343 0 002.009.461 3.123 3.123 0 002.869-1.4 2.066 2.066 0 00.275-.516z"/><path data-name="パス 16" d="M112.921 129.95H29.953V47.924h213.415v65.777" fill="none" stroke="#231815" stroke-miterlimit="10" stroke-width="5"/></svg>