<svg xmlns="http://www.w3.org/2000/svg" width="109.481" height="80"><path data-name="長方形 41" fill="#ececf4" d="M0 0h80v80H0z"/><path data-name="パス 1" d="M34.129 33.735v12.793h7.813v-2.4h-5.151V33.735z"/><path data-name="パス 2" d="M48.826 46.751c3.4 0 5.476-2.2 5.476-5.924v-7.092h-2.628v7.313c0 1.923-.859 3.143-2.852 3.143-1.889 0-2.867-1.135-2.867-3.143v-7.313h-2.661v6.869c0 3.554 1.785 6.148 5.529 6.148z"/><g data-name="グループ 23"><path data-name="パス 3" d="M59.696 40.861c1.236.138 1.923.773 1.923 1.8a1.548 1.548 0 01-1.561 1.527 2.217 2.217 0 01-1.941-.929l-2.2 1.616a5.445 5.445 0 004.136 1.87 4.307 4.307 0 004.327-4.274 3.989 3.989 0 00-3.983-4.087c-1.358-.086-1.785-.619-1.785-1.2a1.087 1.087 0 011.184-1.135 2.1 2.1 0 011.355.635l2.094-1.527a4.346 4.346 0 00-3.453-1.65 3.845 3.845 0 00-3.762 3.692c0 2.008 1.441 3.4 3.658 3.658z"/><path data-name="パス 4" d="M69.246 40.861c1.236.138 1.923.773 1.923 1.8a1.548 1.548 0 01-1.561 1.527 2.217 2.217 0 01-1.941-.929l-2.2 1.616a5.445 5.445 0 004.136 1.87 4.307 4.307 0 004.327-4.274 3.989 3.989 0 00-3.983-4.087c-1.358-.086-1.785-.619-1.785-1.2a1.087 1.087 0 011.184-1.135 2.1 2.1 0 011.355.635l2.094-1.527a4.346 4.346 0 00-3.453-1.65 3.845 3.845 0 00-3.762 3.692c0 2.008 1.441 3.4 3.658 3.658z"/><path data-name="パス 5" d="M81.813 46.751a6.619 6.619 0 10-6.626-6.626 6.617 6.617 0 006.626 6.626zm-.015-10.7a4.075 4.075 0 11-3.882 4.072 3.933 3.933 0 013.882-4.07z"/></g><path data-name="パス 6" d="M67.263 58.897c0-.123-.031-.187-.1-.2a.7.7 0 00-.083-.006h-.23l-1.78-4.351h-.561l-1.662 4.351h-.484v.205h1.4c0-.123-.034-.187-.1-.2a.7.7 0 00-.083-.006h-.423l.543-1.456h1.509l.567 1.456h-.537v.205h2.031zm-2.153-1.892h-1.328l.653-1.745.678 1.745z"/><path data-name="パス 7" d="M71.194 58.697h-.255v-3.066h-1.334v.2h.371l-.006 1.91a.9.9 0 01-.435.785.569.569 0 01-.23.052q-.428 0-.506-.506a1.571 1.571 0 01-.012-.212v-2.229h-1.4v.2h.442v1.9q.014 1.233 1.085 1.239a1.143 1.143 0 001.036-.607l.046-.089.04.619h1.355c0-.11-.031-.175-.1-.193a.716.716 0 00-.089-.006z"/><path data-name="パス 8" d="M71.642 55.864h.524v1.9c0 .733.3 1.135.908 1.208.064 0 .126.006.184.006a.862.862 0 00.806-.377 1.915 1.915 0 00.166-.506l-.205-.025c-.1.408-.251.632-.448.672a.48.48 0 01-.1.006c-.187 0-.3-.129-.337-.389a1.364 1.364 0 01-.012-.193v-2.3h1v-.2h-1v-.874l-.966.153v.721h-.524z"/><path data-name="パス 9" d="M75.534 57.247a2.275 2.275 0 01.261-1.355.563.563 0 01.448-.178.6.6 0 01.619.5 4.125 4.125 0 01.089 1.009 2.152 2.152 0 01-.288 1.392.634.634 0 01-1.036-.325 4.041 4.041 0 01-.1-1.043zm.748-1.726a1.65 1.65 0 00-1.785 1.7 1.758 1.758 0 003.118 1.107 1.78 1.78 0 00.377-1.125 1.611 1.611 0 00-.6-1.328 1.788 1.788 0 00-1.113-.353z"/><path data-name="パス 10" d="M79.908 58.698h-.139l.012-1.956a.886.886 0 01.389-.785.449.449 0 01.2-.052c.187 0 .322.12.4.353a1.1 1.1 0 01.058.371v1.674q0 .313-.147.377a.8.8 0 01-.193.018v.2h1.61c0-.117-.031-.178-.1-.193-.034 0-.067-.006-.1-.006h-.129v-1.993c.034-.423.169-.684.408-.785a.533.533 0 01.153-.025c.218 0 .365.129.448.383a1.4 1.4 0 01.046.353v1.674c0 .209-.049.334-.141.377a.8.8 0 01-.193.018v.2h1.732c0-.117-.034-.178-.1-.193-.031 0-.061-.006-.089-.006h-.248v-1.981a1.159 1.159 0 00-.491-1.055.954.954 0 00-.5-.141 1.188 1.188 0 00-1.1.7.97.97 0 00-.644-.678 1.326 1.326 0 00-.242-.025 1.127 1.127 0 00-1.061.665l-.04-.555h-1.338v.2h.442v2.471a.34.34 0 01-.325.389.742.742 0 01-.117.006v.2h1.717c0-.117-.031-.178-.1-.193a.7.7 0 00-.083-.006z"/><path data-name="パス 11" d="M85.609 57.247a2.276 2.276 0 01.261-1.355.562.562 0 01.448-.178.6.6 0 01.619.5 4.125 4.125 0 01.089 1.009 2.152 2.152 0 01-.288 1.392.634.634 0 01-1.036-.325 4.041 4.041 0 01-.1-1.043zm.748-1.726a1.65 1.65 0 00-1.785 1.7 1.758 1.758 0 003.118 1.107 1.78 1.78 0 00.377-1.125 1.611 1.611 0 00-.6-1.328 1.788 1.788 0 00-1.113-.353z"/><path data-name="パス 12" d="M90.718 58.973a1.45 1.45 0 001.19-.561 1.934 1.934 0 00.4-1.251 1.624 1.624 0 00-.613-1.42 1.246 1.246 0 00-.708-.218 1.272 1.272 0 00-1.174.773v-2.33h-1.398v.205h.435v4.127c0 .218-.086.346-.255.383a1.105 1.105 0 01-.178.012v.205h1.162l.058-.53a1.263 1.263 0 001.085.607zm-.107-3.085q.653.014.653 1.38c-.006 1-.239 1.5-.7 1.5q-.492 0-.672-.653a2.739 2.739 0 01-.083-.708 1.736 1.736 0 01.442-1.392.583.583 0 01.365-.129z"/><path data-name="パス 13" d="M94.384 58.694h-.282v-3.066h-1.4v.2h.442v2.471c0 .227-.089.356-.27.383a.983.983 0 01-.172.012v.2h1.864c0-.117-.034-.178-.1-.193a.7.7 0 00-.082-.007zm-.212-4.057a.584.584 0 00-.57-.567.53.53 0 00-.491.294.544.544 0 00-.071.276.509.509 0 00.294.484.611.611 0 00.27.064.526.526 0 00.491-.276.536.536 0 00.078-.271z"/><path data-name="パス 14" d="M96.77 58.697h-.383v-4.734h-1.552v.2h.589v4.127a.338.338 0 01-.248.377 1.453 1.453 0 01-.337.031v.2h2.116c0-.117-.031-.178-.1-.193a.7.7 0 00-.083-.006z"/><path data-name="パス 15" d="M99.019 55.714c.322.012.488.291.491.831q0 .359-.212.442a1.346 1.346 0 01-.46.04l-.484-.025c.04-.837.258-1.266.665-1.285zm1.42 2.4l-.184-.064a1.126 1.126 0 01-1.036.7c-.4 0-.668-.258-.785-.773a4.584 4.584 0 01-.077-.754l.7.018c.813.025 1.285-.1 1.42-.383a.647.647 0 00.042-.237.989.989 0 00-.665-.944 2.2 2.2 0 00-.837-.153 1.62 1.62 0 00-1.334.583 1.757 1.757 0 00-.365 1.131 1.582 1.582 0 00.825 1.533 1.936 1.936 0 00.9.205 1.392 1.392 0 001.279-.626.922.922 0 00.123-.23z"/><path data-name="パス 16" d="M50.334 57.925H13.351V21.362h95.129v29.32" fill="none" stroke="#231815" stroke-miterlimit="10" stroke-width="2"/></svg>